<?xml version="1.0" encoding="UTF-8"?>
<!DOCTYPE svg PUBLIC "-//W3C//DTD SVG 1.1//EN" "http://www.w3.org/Graphics/SVG/1.1/DTD/svg11.dtd">
<svg xmlns="http://www.w3.org/2000/svg" version="1.1" width="300px" height="300px" style="shape-rendering:geometricPrecision; text-rendering:geometricPrecision; image-rendering:optimizeQuality; fill-rule:evenodd; clip-rule:evenodd" xmlns:xlink="http://www.w3.org/1999/xlink">
<g><path style="opacity:1" fill="#181712" d="M 191.5,299.5 C 190.5,299.5 189.5,299.5 188.5,299.5C 192.566,288.301 196.233,276.967 199.5,265.5C 190.339,264.613 182.172,261.279 175,255.5C 174.916,261.017 173.916,266.351 172,271.5C 169.278,275.652 166.112,279.319 162.5,282.5C 139.148,290.874 116.815,288.707 95.5,276C 87.5779,269.323 83.5779,260.823 83.5,250.5C 79.8333,250.5 76.1667,250.5 72.5,250.5C 72.9533,266.941 71.9533,283.274 69.5,299.5C 68.5,299.5 67.5,299.5 66.5,299.5C 68.3635,282.898 69.3635,266.232 69.5,249.5C 63.2665,248.811 57.5998,246.644 52.5,243C 30.0706,225.526 25.2372,204.026 38,178.5C 43.2561,171.242 49.7561,165.409 57.5,161C 58.0585,160.275 58.3918,159.442 58.5,158.5C 56.842,151.535 55.342,144.535 54,137.5C 53,135.167 51.3333,133.5 49,132.5C 44.5109,123.949 43.5109,114.949 46,105.5C 50.1929,93.4426 56.1929,82.4426 64,72.5C 70.1286,57.5698 77.7952,43.5698 87,30.5C 94.0807,21.293 103.414,16.6263 115,16.5C 121.97,16.8562 128.804,18.0228 135.5,20C 144.101,24.9388 152.435,30.2721 160.5,36C 168.538,39.0182 176.538,39.0182 184.5,36C 202.463,26.1485 220.463,26.1485 238.5,36C 244.995,41.4996 249.495,48.333 252,56.5C 256.111,77.3896 261.111,98.0563 267,118.5C 270.097,131.495 268.43,143.829 262,155.5C 250.209,161.557 241.709,170.723 236.5,183C 252.627,199.248 256.46,218.081 248,239.5C 238.483,257.82 223.317,266.82 202.5,266.5C 199.429,277.714 195.762,288.714 191.5,299.5 Z"/></g>
<g><path style="opacity:1" fill="#edca02" d="M 121.5,20.5 C 119.473,20.3379 117.473,20.5045 115.5,21C 119.082,21.5954 119.416,22.9288 116.5,25C 97.2911,33.2265 85.7911,47.7265 82,68.5C 81.5027,82.5505 81.836,96.5505 83,110.5C 74.2076,120.051 71.3742,131.051 74.5,143.5C 74.6621,145.527 74.4955,147.527 74,149.5C 66.2962,142.127 58.2962,135.127 50,128.5C 46.7247,119.818 46.7247,111.152 50,102.5C 54.8691,92.3136 60.5358,82.6469 67,73.5C 72.6063,58.2808 80.273,44.2808 90,31.5C 98.3767,21.3205 108.877,17.6538 121.5,20.5 Z"/></g>
<g><path style="opacity:1" fill="#f9de2c" d="M 121.5,20.5 C 127.73,21.0576 133.73,22.5576 139.5,25C 145.614,30.4453 152.28,35.112 159.5,39C 165.322,41.0599 171.322,41.8933 177.5,41.5C 176.081,42.4511 174.415,42.7845 172.5,42.5C 170.065,52.5067 167.565,62.5067 165,72.5C 163.836,82.8132 163.002,93.1465 162.5,103.5C 166.263,103.857 169.93,104.69 173.5,106C 172.906,106.464 172.239,106.631 171.5,106.5C 160.961,104.357 150.295,103.024 139.5,102.5C 148.723,87.1285 150.89,70.7952 146,53.5C 139.598,36.0553 127.431,29.222 109.5,33C 91.9722,43.8863 83.8055,59.7196 85,80.5C 85.3952,92.9506 89.8952,103.617 98.5,112.5C 87.9402,117.192 80.4402,124.859 76,135.5C 74.9207,138.063 74.4207,140.729 74.5,143.5C 71.3742,131.051 74.2076,120.051 83,110.5C 81.836,96.5505 81.5027,82.5505 82,68.5C 85.7911,47.7265 97.2911,33.2265 116.5,25C 119.416,22.9288 119.082,21.5954 115.5,21C 117.473,20.5045 119.473,20.3379 121.5,20.5 Z"/></g>
<g><path style="opacity:1" fill="#fadc26" d="M 174.5,98.5 C 169.753,78.1995 175.419,60.3662 191.5,45C 196.742,42.2182 201.408,38.7182 205.5,34.5C 203.709,33.8302 202.042,33.1635 200.5,32.5C 227.21,27.2533 244.044,37.5867 251,63.5C 255.036,83.6453 259.703,103.645 265,123.5C 265.81,131.299 265.144,138.965 263,146.5C 261.698,150.274 259.531,153.441 256.5,156C 245.004,160.908 234.337,166.408 224.5,172.5C 232.582,154.728 228.916,139.728 213.5,127.5C 229.429,117.488 237.762,102.988 238.5,84C 238.458,71.9818 234.958,61.1484 228,51.5C 211.791,38.1888 197.124,39.8555 184,56.5C 175.809,69.2922 172.642,83.2922 174.5,98.5 Z"/></g>
<g><path style="opacity:1" fill="#eecc04" d="M 200.5,32.5 C 202.042,33.1635 203.709,33.8302 205.5,34.5C 201.408,38.7182 196.742,42.2182 191.5,45C 175.419,60.3662 169.753,78.1995 174.5,98.5C 175.867,101.268 176.867,104.268 177.5,107.5C 177.167,107.833 176.833,108.167 176.5,108.5C 174.664,107.972 172.997,107.306 171.5,106.5C 172.239,106.631 172.906,106.464 173.5,106C 169.93,104.69 166.263,103.857 162.5,103.5C 163.002,93.1465 163.836,82.8132 165,72.5C 167.565,62.5067 170.065,52.5067 172.5,42.5C 174.415,42.7845 176.081,42.4511 177.5,41.5C 185.159,38.7201 192.826,35.7201 200.5,32.5 Z"/></g>
<g><path style="opacity:1" fill="#fcfcfc" d="M 112.5,34.5 C 130.016,33.8216 140.849,42.1549 145,59.5C 146.541,71.533 145.207,83.1997 141,94.5C 139.789,97.7591 137.956,100.592 135.5,103C 124.162,104.085 113.162,106.585 102.5,110.5C 96.6838,107.512 92.8504,102.846 91,96.5C 83.2927,74.3541 87.7927,55.1875 104.5,39C 107.354,37.6035 110.02,36.1035 112.5,34.5 Z"/></g>
<g><path style="opacity:1" fill="#fffdf4" d="M 230.5,41.5 C 233.867,40.2376 236.7,41.2376 239,44.5C 240.422,47.0301 240.755,49.6967 240,52.5C 237.716,48.0506 234.549,44.384 230.5,41.5 Z"/></g>
<g><path style="opacity:1" fill="#fffdf3" d="M 151.5,44.5 C 154.456,45.4554 156.456,47.4554 157.5,50.5C 152.711,51.7144 150.711,49.7144 151.5,44.5 Z"/></g>
<g><path style="opacity:1" fill="#fcfcfc" d="M 202.5,45.5 C 217.799,44.2384 227.966,50.9051 233,65.5C 239.164,86.9873 234.331,105.487 218.5,121C 216.44,122.696 214.107,123.863 211.5,124.5C 202.085,118.459 192.085,113.459 181.5,109.5C 176.339,95.5895 176.172,81.5895 181,67.5C 185.045,56.9563 192.212,49.623 202.5,45.5 Z"/></g>
<g><path style="opacity:1" fill="#060606" d="M 124.5,84.5 C 137.161,84.3209 140.495,89.8209 134.5,101C 122.96,104.799 118.127,100.633 120,88.5C 121.397,86.9297 122.897,85.5964 124.5,84.5 Z"/></g>
<g><path style="opacity:1" fill="#070707" d="M 187.5,91.5 C 199.855,92.5056 202.855,98.3389 196.5,109C 185.587,112.094 180.754,107.927 182,96.5C 183.812,94.6997 185.645,93.0331 187.5,91.5 Z"/></g>
<g><path style="opacity:1" fill="#fce12c" d="M 112.5,185.5 C 111.402,184.603 111.402,183.77 112.5,183C 90.7777,170.499 84.6111,152.665 94,129.5C 97.1311,125.367 100.631,121.534 104.5,118C 111.133,114.186 117.8,110.686 124.5,107.5C 150.409,103.973 175.076,108.14 198.5,120C 207.636,125.805 215.469,132.972 222,141.5C 229.798,157.477 226.632,170.977 212.5,182C 190.886,194.921 167.553,199.254 142.5,195C 131.852,193.505 121.852,190.338 112.5,185.5 Z"/></g>
<g><path style="opacity:1" fill="#eac90e" d="M 124.5,107.5 C 117.8,110.686 111.133,114.186 104.5,118C 100.631,121.534 97.1311,125.367 94,129.5C 84.6111,152.665 90.7777,170.499 112.5,183C 111.402,183.77 111.402,184.603 112.5,185.5C 96.553,179.051 85.053,168.051 78,152.5C 75.7701,138.802 80.2701,127.968 91.5,120C 101.462,113.178 112.462,109.012 124.5,107.5 Z"/></g>
<g><path style="opacity:1" fill="#fffdf2" d="M 206.5,130.5 C 211.907,132.737 215.907,136.571 218.5,142C 217.407,145.12 215.907,145.287 214,142.5C 211.249,138.598 208.749,134.598 206.5,130.5 Z"/></g>
<g><path style="opacity:1" fill="#fffdf2" d="M 261.5,130.5 C 262.62,136.754 261.453,142.754 258,148.5C 256.736,150.607 254.903,151.607 252.5,151.5C 255.949,144.709 258.949,137.709 261.5,130.5 Z"/></g>
<g><path style="opacity:1" fill="#cfb302" d="M 110.5,138.5 C 116.565,138.261 122.565,138.761 128.5,140C 133.879,141.677 136.379,145.177 136,150.5C 134.587,152.414 132.753,153.747 130.5,154.5C 129.064,149.896 126.064,146.73 121.5,145C 116.231,143.894 110.897,143.227 105.5,143C 107.24,141.483 108.906,139.983 110.5,138.5 Z"/></g>
<g><path style="opacity:1" fill="#9e870c" d="M 58.5,139.5 C 64.9595,144.125 70.6262,149.625 75.5,156C 71.0283,156.743 66.6949,157.91 62.5,159.5C 60.5254,152.96 59.1921,146.294 58.5,139.5 Z"/></g>
<g><path style="opacity:1" fill="#ceb201" d="M 173.5,145.5 C 181.652,144.94 188.819,147.273 195,152.5C 196.609,157.707 194.776,160.707 189.5,161.5C 189.21,157.039 186.877,154.205 182.5,153C 176.992,151.149 171.325,150.149 165.5,150C 167.82,147.679 170.486,146.179 173.5,145.5 Z"/></g>
<g><path style="opacity:1" fill="#c7cbc8" d="M 75.5,159.5 C 74.651,165.605 75.9843,171.105 79.5,176C 77.2115,176.822 74.8782,177.489 72.5,178C 74.1341,178.494 75.8008,178.66 77.5,178.5C 82.5,177.5 84.5,179.5 83.5,184.5C 80.1501,184.335 76.8168,184.502 73.5,185C 72.5495,188.057 72.2161,191.223 72.5,194.5C 68.5633,194.207 64.73,194.54 61,195.5C 60.3333,200.5 60.3333,205.5 61,210.5C 64.0567,211.451 67.2234,211.784 70.5,211.5C 70.335,214.85 70.5017,218.183 71,221.5C 75.9242,223.456 80.9242,223.789 86,222.5C 86.2117,219.242 86.7117,216.076 87.5,213C 91.1516,212.501 94.8183,212.335 98.5,212.5C 99.0845,207.501 99.2511,202.501 99,197.5C 96.9592,196.577 94.7925,196.244 92.5,196.5C 92.767,194.035 93.4336,191.701 94.5,189.5C 116.923,201.465 140.923,206.798 166.5,205.5C 160.7,231.746 170.367,249.246 195.5,258C 224.669,260.654 240.669,247.488 243.5,218.5C 242.969,201.419 234.969,189.419 219.5,182.5C 220.479,180.855 221.812,179.521 223.5,178.5C 248.835,193.341 255.669,214.341 244,241.5C 232.752,258.483 216.919,265.65 196.5,263C 184.722,259.941 175.056,253.608 167.5,244C 165.283,242.725 162.949,241.725 160.5,241C 153.167,240.667 145.833,240.333 138.5,240C 125.914,237.895 113.414,235.395 101,232.5C 92.0363,232.956 86.5363,237.623 84.5,246.5C 64.3283,249.497 49.1617,242.164 39,224.5C 28.263,196.502 36.0963,175.669 62.5,162C 66.6322,160.1 70.9655,159.267 75.5,159.5 Z"/></g>
<g><path style="opacity:1" fill="#949795" d="M 75.5,159.5 C 76.4959,159.414 77.3292,159.748 78,160.5C 79.4213,163.009 81.0879,165.343 83,167.5C 83.4983,170.817 83.665,174.15 83.5,177.5C 81.2646,177.205 79.2646,177.539 77.5,178.5C 75.8008,178.66 74.1341,178.494 72.5,178C 74.8782,177.489 77.2115,176.822 79.5,176C 75.9843,171.105 74.651,165.605 75.5,159.5 Z"/></g>
<g><path style="opacity:1" fill="#ccae00" d="M 241.5,165.5 C 242.239,165.369 242.906,165.536 243.5,166C 239.629,170.907 236.129,176.074 233,181.5C 230.742,179.57 228.242,178.07 225.5,177C 230.371,172.409 235.705,168.576 241.5,165.5 Z"/></g>
<g><path style="opacity:1" fill="#f7f7f7" d="M 87.5,202.5 C 86.5128,197.695 86.1795,192.695 86.5,187.5C 86.1734,182.786 86.5067,178.12 87.5,173.5C 90.0479,175.552 92.3812,177.719 94.5,180C 91.8571,187.427 89.5238,194.927 87.5,202.5 Z"/></g>
<g><path style="opacity:1" fill="#949795" d="M 169.5,199.5 C 168.89,200.391 168.557,201.391 168.5,202.5C 167.833,203.5 167.167,204.5 166.5,205.5C 140.923,206.798 116.923,201.465 94.5,189.5C 94.4148,188.005 95.0815,187.005 96.5,186.5C 103.717,193.08 104.217,192.413 98,184.5C 97.2506,183.365 97.4173,182.365 98.5,181.5C 114.26,191.809 131.594,197.642 150.5,199C 156.825,199.5 163.158,199.666 169.5,199.5 Z"/></g>
<g><path style="opacity:1" fill="#495f65" d="M 219.5,182.5 C 234.969,189.419 242.969,201.419 243.5,218.5C 240.669,247.488 224.669,260.654 195.5,258C 170.367,249.246 160.7,231.746 166.5,205.5C 167.167,204.5 167.833,203.5 168.5,202.5C 168.791,203.649 169.624,204.316 171,204.5C 177.631,203.716 184.131,202.383 190.5,200.5C 184.926,204.059 179.593,208.059 174.5,212.5C 171.282,218.57 172.616,223.403 178.5,227C 182.782,227.965 186.782,227.298 190.5,225C 192.667,223.5 194.833,222 197,220.5C 197.497,217.854 197.664,215.187 197.5,212.5C 198.486,216.97 198.819,221.637 198.5,226.5C 191.82,230.188 189.987,235.522 193,242.5C 196.05,246.13 199.883,247.297 204.5,246C 214.434,240.118 223.934,233.618 233,226.5C 235.989,216.323 232.156,211.49 221.5,212C 215.805,215.511 210.139,219.011 204.5,222.5C 204.899,218.989 205.566,215.656 206.5,212.5C 213.971,211.305 216.804,206.638 215,198.5C 214.066,195.334 212.233,194.334 209.5,195.5C 209.726,188.691 213.06,184.357 219.5,182.5 Z"/></g>
<g><path style="opacity:1" fill="#f2f2f2" d="M 202.5,217.5 C 201.833,216.5 201.167,215.5 200.5,214.5C 200.109,207.157 199.943,199.824 200,192.5C 202.645,190.585 205.479,189.418 208.5,189C 206.127,198.395 204.127,207.895 202.5,217.5 Z"/></g>
<g><path style="opacity:1" fill="#cabeba" d="M 206.5,212.5 C 206.5,211.833 206.5,211.167 206.5,210.5C 208.903,210.607 210.736,209.607 212,207.5C 212.667,204.833 212.667,202.167 212,199.5C 211.292,198.619 210.458,197.953 209.5,197.5C 209.5,196.833 209.5,196.167 209.5,195.5C 212.233,194.334 214.066,195.334 215,198.5C 216.804,206.638 213.971,211.305 206.5,212.5 Z"/></g>
<g><path style="opacity:1" fill="#334448" d="M 196.5,197.5 C 194.483,198.529 192.483,199.529 190.5,200.5C 184.131,202.383 177.631,203.716 171,204.5C 169.624,204.316 168.791,203.649 168.5,202.5C 168.557,201.391 168.89,200.391 169.5,199.5C 178.524,199.623 187.19,197.956 195.5,194.5C 196.386,195.325 196.719,196.325 196.5,197.5 Z"/></g>
<g><path style="opacity:1" fill="#1e2a30" d="M 74.5,186.5 C 77.5219,186.804 80.5219,187.304 83.5,188C 81.5273,188.495 79.5273,188.662 77.5,188.5C 77.5,192.167 77.5,195.833 77.5,199.5C 73.5,199.5 69.5,199.5 65.5,199.5C 65.5,200.5 65.5,201.5 65.5,202.5C 71.172,202.76 76.8387,203.093 82.5,203.5C 81.9132,209.303 82.5798,214.803 84.5,220C 80.8484,220.499 77.1817,220.665 73.5,220.5C 73.6653,216.818 73.4986,213.152 73,209.5C 69.6064,208.544 66.1064,208.211 62.5,208.5C 62.7244,204.821 63.0578,201.154 63.5,197.5C 67.1667,197.5 70.8333,197.5 74.5,197.5C 74.5,193.833 74.5,190.167 74.5,186.5 Z"/></g>
<g><path style="opacity:1" fill="#b50c0a" d="M 209.5,197.5 C 210.458,197.953 211.292,198.619 212,199.5C 212.667,202.167 212.667,204.833 212,207.5C 210.736,209.607 208.903,210.607 206.5,210.5C 207.119,206.07 208.119,201.737 209.5,197.5 Z"/></g>
<g><path style="opacity:1" fill="#cac7c3" d="M 196.5,197.5 C 197.392,202.438 197.726,207.438 197.5,212.5C 197.664,215.187 197.497,217.854 197,220.5C 194.833,222 192.667,223.5 190.5,225C 186.782,227.298 182.782,227.965 178.5,227C 172.616,223.403 171.282,218.57 174.5,212.5C 179.593,208.059 184.926,204.059 190.5,200.5C 192.483,199.529 194.483,198.529 196.5,197.5 Z"/></g>
<g><path style="opacity:1" fill="#969696" d="M 86.5,187.5 C 86.1795,192.695 86.5128,197.695 87.5,202.5C 86.9101,203.766 86.4101,205.099 86,206.5C 85.18,199.986 85.3467,193.653 86.5,187.5 Z"/></g>
<g><path style="opacity:1" fill="#0e0f0f" d="M 124.5,208.5 C 129,208.164 130.833,210.164 130,214.5C 125.916,217.126 121.75,219.626 117.5,222C 112.917,222.934 111.417,221.1 113,216.5C 117.162,214.181 120.995,211.514 124.5,208.5 Z"/></g>
<g><path style="opacity:1" fill="#bf0f0c" d="M 181.5,209.5 C 189.893,210.299 192.727,214.632 190,222.5C 183.052,227.285 178.219,225.618 175.5,217.5C 176.401,213.942 178.401,211.275 181.5,209.5 Z"/></g>
<g><path style="opacity:1" fill="#2c3b41" d="M 124.5,211.5 C 126.355,211.272 127.188,211.939 127,213.5C 123.298,216.032 119.465,218.365 115.5,220.5C 114.167,219.5 114.167,218.5 115.5,217.5C 118.738,215.725 121.738,213.725 124.5,211.5 Z"/></g>
<g><path style="opacity:1" fill="#181c1d" d="M 148.5,211.5 C 153.214,211.201 154.88,213.201 153.5,217.5C 149.668,220.25 145.668,222.75 141.5,225C 137.494,225.987 135.661,224.487 136,220.5C 139.969,217.111 144.136,214.111 148.5,211.5 Z"/></g>
<g><path style="opacity:1" fill="#a6b1b4" d="M 237.5,210.5 C 239.185,211.184 240.185,212.517 240.5,214.5C 240.167,214.833 239.833,215.167 239.5,215.5C 237.994,214.77 236.66,214.437 235.5,214.5C 236.18,213.14 236.847,211.807 237.5,210.5 Z"/></g>
<g><path style="opacity:1" fill="#cdc7c4" d="M 198.5,226.5 C 198.5,227.5 198.5,228.5 198.5,229.5C 194.213,232.622 193.379,236.622 196,241.5C 205.617,245.868 209.95,242.868 209,232.5C 207.549,230.536 205.716,229.203 203.5,228.5C 203.325,226.379 203.659,224.379 204.5,222.5C 210.139,219.011 215.805,215.511 221.5,212C 232.156,211.49 235.989,216.323 233,226.5C 223.934,233.618 214.434,240.118 204.5,246C 199.883,247.297 196.05,246.13 193,242.5C 189.987,235.522 191.82,230.188 198.5,226.5 Z"/></g>
<g><path style="opacity:1" fill="#be0908" d="M 219.5,214.5 C 227.661,213.171 231.495,216.505 231,224.5C 227.702,229.774 223.369,230.774 218,227.5C 215.639,222.729 216.139,218.396 219.5,214.5 Z"/></g>
<g><path style="opacity:1" fill="#777777" d="M 200.5,214.5 C 201.167,215.5 201.833,216.5 202.5,217.5C 202.291,218.922 201.791,220.255 201,221.5C 200.503,219.19 200.337,216.857 200.5,214.5 Z"/></g>
<g><path style="opacity:1" fill="#b90a08" d="M 203.5,228.5 C 205.716,229.203 207.549,230.536 209,232.5C 209.95,242.868 205.617,245.868 196,241.5C 193.379,236.622 194.213,232.622 198.5,229.5C 199.161,230.718 199.828,232.051 200.5,233.5C 201.696,231.855 202.696,230.189 203.5,228.5 Z"/></g>
<g><path style="opacity:1" fill="#eac700" d="M 146.5,243.5 C 134.326,244.399 121.993,244.565 109.5,244C 100.464,248.665 97.9637,255.831 102,265.5C 106.375,273.113 112.875,277.946 121.5,280C 134.587,283.42 147.587,283.253 160.5,279.5C 156.837,281.595 152.837,283.095 148.5,284C 130.753,286.783 114.087,283.783 98.5,275C 85.8032,265.168 83.3032,253.335 91,239.5C 92.4095,238.213 93.9095,237.046 95.5,236C 99.8333,235.333 104.167,235.333 108.5,236C 120.791,240.406 133.458,242.906 146.5,243.5 Z"/></g>
<g><path style="opacity:1" fill="#fde22c" d="M 146.5,243.5 C 151.511,243.334 156.511,243.501 161.5,244C 171.504,249.002 174.67,256.835 171,267.5C 169.066,272.93 165.566,276.93 160.5,279.5C 147.587,283.253 134.587,283.42 121.5,280C 112.875,277.946 106.375,273.113 102,265.5C 97.9637,255.831 100.464,248.665 109.5,244C 121.993,244.565 134.326,244.399 146.5,243.5 Z"/></g>
<g><path style="opacity:1" fill="#a6b1b4" d="M 183.5,241.5 C 184.833,241.5 186.167,241.5 187.5,241.5C 187.5,243.167 187.5,244.833 187.5,246.5C 186.167,246.5 184.833,246.5 183.5,246.5C 183.5,244.833 183.5,243.167 183.5,241.5 Z"/></g>
<g><path style="opacity:1" fill="#fffdf0" d="M 160.5,249.5 C 165.432,251.614 167.098,255.28 165.5,260.5C 163.5,257.5 161.5,254.5 159.5,251.5C 159.863,250.817 160.196,250.15 160.5,249.5 Z"/></g>
<g><path style="opacity:1" fill="#a88f0c" d="M 162.5,282.5 C 160.498,288.172 158.498,293.838 156.5,299.5C 127.5,299.5 98.5,299.5 69.5,299.5C 71.9533,283.274 72.9533,266.941 72.5,250.5C 76.1667,250.5 79.8333,250.5 83.5,250.5C 83.5779,260.823 87.5779,269.323 95.5,276C 116.815,288.707 139.148,290.874 162.5,282.5 Z"/></g>
<g><path style="opacity:1" fill="#d8b800" d="M 188.5,299.5 C 177.833,299.5 167.167,299.5 156.5,299.5C 158.498,293.838 160.498,288.172 162.5,282.5C 166.112,279.319 169.278,275.652 172,271.5C 173.916,266.351 174.916,261.017 175,255.5C 182.172,261.279 190.339,264.613 199.5,265.5C 196.233,276.967 192.566,288.301 188.5,299.5 Z"/></g>
</svg>
